<svg xmlns="http://www.w3.org/2000/svg" width="440" height="314" viewBox="0 0 440 314">
<rect width="100%" height="100%" fill="#2b2b2b"/>
<line x1="176" y1="75" x2="196" y2="75" stroke="#ff3030" stroke-width="2" stroke-linecap="round"/>
<line x1="196" y1="75" x2="256" y2="75" stroke="#ff3030" stroke-width="2" stroke-linecap="round"/>
<line x1="256" y1="75" x2="276" y2="75" stroke="#ff3030" stroke-width="2" stroke-linecap="round"/>
<line x1="256" y1="177" x2="276" y2="177" stroke="#ff3030" stroke-width="2" stroke-linecap="round"/>
<line x1="240" y1="177" x2="256" y2="177" stroke="#ff3030" stroke-width="2" stroke-linecap="round"/>
<line x1="36" y1="234" x2="264" y2="234" stroke="#088b00" stroke-width="2" stroke-linecap="round"/>
<line x1="36" y1="75" x2="48" y2="75" stroke="#088b00" stroke-width="2" stroke-linecap="round"/>
<line x1="264" y1="93" x2="276" y2="93" stroke="#088b00" stroke-width="2" stroke-linecap="round"/>
<line x1="264" y1="195" x2="276" y2="195" stroke="#088b00" stroke-width="2" stroke-linecap="round"/>
<path d="M 240,75 V 177" fill="none" stroke="#ff3030" stroke-width="2" stroke-linecap="round" stroke-linejoin="round"/>
<path d="M 36,75 V 234" fill="none" stroke="#088b00" stroke-width="2" stroke-linecap="round" stroke-linejoin="round"/>
<path d="M 264,93 V 171.5 A 5.5,5.5 0 0 1 264,182.5 V 234" fill="none" stroke="#088b00" stroke-width="2" stroke-linecap="round" stroke-linejoin="round"/>
<circle cx="36" cy="234" r="3" fill="#088b00"/>
<circle cx="240" cy="75" r="3" fill="#ff3030"/>
<circle cx="264" cy="195" r="3" fill="#088b00"/>
<line x1="36" y1="234" x2="36" y2="244" stroke="#909090" stroke-width="2" stroke-linecap="round"/>
<line x1="22" y1="248" x2="50" y2="248" stroke="#909090" stroke-width="2" stroke-linecap="round"/>
<line x1="27" y1="253" x2="45" y2="253" stroke="#909090" stroke-width="2" stroke-linecap="round"/>
<line x1="30.5" y1="258" x2="41.5" y2="258" stroke="#909090" stroke-width="2" stroke-linecap="round"/>
<text x="36" y="272" text-anchor="middle" fill="#e6e6e6" font-family="Segoe UI,sans-serif" font-size="9" font-weight="600">GND</text>
<rect class="topo-hit" data-label="J1" x="48" y="36" width="128" height="56" rx="6" fill="#333333" stroke="#555555" stroke-width="1"/>
<rect x="48" y="36" width="128" height="22" rx="6" fill="#ff3030"/>
<rect x="48" y="52" width="128" height="6" fill="#ff3030"/>
<text x="56" y="51" fill="#ffffff" font-family="Segoe UI,sans-serif" font-size="10" font-weight="600">SOURCE</text>
<text x="168" y="51" fill="#ffffff" text-anchor="end" font-family="Segoe UI,sans-serif" font-size="10" font-weight="600">J1</text>
<circle cx="48" cy="75" r="5" fill="#ff3030" stroke="#555555" stroke-width="1"/>
<text x="56" y="78" text-anchor="start" fill="#909090" font-family="Consolas,monospace" font-size="8">GND</text>
<circle cx="176" cy="75" r="5" fill="#ff3030" stroke="#555555" stroke-width="1"/>
<text x="168" y="78" text-anchor="end" fill="#909090" font-family="Consolas,monospace" font-size="8">VDD</text>
<rect class="topo-hit" data-label="U1" x="276" y="36" width="128" height="74" rx="6" fill="#333333" stroke="#555555" stroke-width="1"/>
<rect x="276" y="36" width="128" height="22" rx="6" fill="#3aa8ff"/>
<rect x="276" y="52" width="128" height="6" fill="#3aa8ff"/>
<text x="284" y="51" fill="#ffffff" font-family="Segoe UI,sans-serif" font-size="10" font-weight="600">SINK</text>
<text x="396" y="51" fill="#ffffff" text-anchor="end" font-family="Segoe UI,sans-serif" font-size="10" font-weight="600">U1</text>
<circle cx="276" cy="75" r="5" fill="#3aa8ff" stroke="#555555" stroke-width="1"/>
<text x="284" y="78" text-anchor="start" fill="#909090" font-family="Consolas,monospace" font-size="8">VDD</text>
<circle cx="276" cy="93" r="5" fill="#3aa8ff" stroke="#555555" stroke-width="1"/>
<text x="284" y="96" text-anchor="start" fill="#909090" font-family="Consolas,monospace" font-size="8">GND</text>
<rect class="topo-hit" data-label="U2" x="276" y="138" width="128" height="74" rx="6" fill="#333333" stroke="#555555" stroke-width="1"/>
<rect x="276" y="138" width="128" height="22" rx="6" fill="#3aa8ff"/>
<rect x="276" y="154" width="128" height="6" fill="#3aa8ff"/>
<text x="284" y="153" fill="#ffffff" font-family="Segoe UI,sans-serif" font-size="10" font-weight="600">SINK</text>
<text x="396" y="153" fill="#ffffff" text-anchor="end" font-family="Segoe UI,sans-serif" font-size="10" font-weight="600">U2</text>
<circle cx="276" cy="177" r="5" fill="#3aa8ff" stroke="#555555" stroke-width="1"/>
<text x="284" y="180" text-anchor="start" fill="#909090" font-family="Consolas,monospace" font-size="8">VDD</text>
<circle cx="276" cy="195" r="5" fill="#3aa8ff" stroke="#555555" stroke-width="1"/>
<text x="284" y="198" text-anchor="start" fill="#909090" font-family="Consolas,monospace" font-size="8">GND</text>
<rect x="215" y="69" width="22" height="12" fill="#2b2b2b" fill-opacity="0.5" stroke="none" rx="2"/>
<text x="226" y="75" text-anchor="middle" dominant-baseline="middle" fill="#e6e6e6" font-family="Segoe UI,sans-serif" font-size="8">VDD</text>
<rect x="12" y="288" width="10" height="10" rx="2" fill="#ff3030"/>
<text x="26" y="298" fill="#909090" font-family="Segoe UI,sans-serif" font-size="10">SOURCE</text>
<rect x="90" y="288" width="10" height="10" rx="2" fill="#3aa8ff"/>
<text x="104" y="298" fill="#909090" font-family="Segoe UI,sans-serif" font-size="10">SINK</text>
<rect x="168" y="288" width="10" height="10" rx="2" fill="#1a7a3c"/>
<text x="182" y="298" fill="#909090" font-family="Segoe UI,sans-serif" font-size="10">SERIES</text>
<rect x="246" y="288" width="10" height="10" rx="2" fill="#ff66ff"/>
<text x="260" y="298" fill="#909090" font-family="Segoe UI,sans-serif" font-size="10">REGULATOR</text>
<line x1="324" y1="294" x2="342" y2="294" stroke="#909090" stroke-width="2" stroke-dasharray="5 4"/>
<text x="348" y="298" fill="#909090" font-family="Segoe UI,sans-serif" font-size="10">extern</text>
</svg>
