<svg xmlns="http://www.w3.org/2000/svg" width="896" height="240" viewBox="0 0 896 240">
<rect width="100%" height="100%" fill="#2b2b2b"/>
<line x1="176" y1="85" x2="196" y2="85" stroke="#ff3030" stroke-width="2" stroke-linecap="round"/>
<line x1="196" y1="85" x2="212" y2="85" stroke="#ff3030" stroke-width="2" stroke-linecap="round"/>
<line x1="212" y1="85" x2="256" y2="85" stroke="#ff3030" stroke-width="2" stroke-linecap="round"/>
<line x1="256" y1="85" x2="276" y2="85" stroke="#ff3030" stroke-width="2" stroke-linecap="round"/>
<line x1="404" y1="85" x2="424" y2="85" stroke="#ff3030" stroke-width="2" stroke-linecap="round"/>
<line x1="424" y1="85" x2="484" y2="85" stroke="#ff3030" stroke-width="2" stroke-linecap="round"/>
<line x1="484" y1="85" x2="504" y2="85" stroke="#ff3030" stroke-width="2" stroke-linecap="round"/>
<line x1="484" y1="36" x2="696" y2="36" stroke="#ff3030" stroke-width="2" stroke-linecap="round"/>
<line x1="696" y1="85" x2="712" y2="85" stroke="#ff3030" stroke-width="2" stroke-linecap="round"/>
<line x1="712" y1="85" x2="732" y2="85" stroke="#ff3030" stroke-width="2" stroke-linecap="round"/>
<line x1="36" y1="160" x2="720" y2="160" stroke="#088b00" stroke-width="2" stroke-linecap="round"/>
<line x1="36" y1="85" x2="48" y2="85" stroke="#088b00" stroke-width="2" stroke-linecap="round"/>
<line x1="264" y1="121" x2="276" y2="121" stroke="#088b00" stroke-width="2" stroke-linecap="round"/>
<line x1="404" y1="121" x2="416" y2="121" stroke="#088b00" stroke-width="2" stroke-linecap="round"/>
<line x1="720" y1="103" x2="732" y2="103" stroke="#088b00" stroke-width="2" stroke-linecap="round"/>
<path d="M 696,36 V 85" fill="none" stroke="#ff3030" stroke-width="2" stroke-linecap="round" stroke-linejoin="round"/>
<path d="M 484,36 V 85" fill="none" stroke="#ff3030" stroke-width="2" stroke-linecap="round" stroke-linejoin="round"/>
<path d="M 36,85 V 160" fill="none" stroke="#088b00" stroke-width="2" stroke-linecap="round" stroke-linejoin="round"/>
<path d="M 264,121 V 160" fill="none" stroke="#088b00" stroke-width="2" stroke-linecap="round" stroke-linejoin="round"/>
<path d="M 416,121 V 160" fill="none" stroke="#088b00" stroke-width="2" stroke-linecap="round" stroke-linejoin="round"/>
<path d="M 720,103 V 160" fill="none" stroke="#088b00" stroke-width="2" stroke-linecap="round" stroke-linejoin="round"/>
<circle cx="36" cy="160" r="3" fill="#088b00"/>
<circle cx="264" cy="160" r="3" fill="#088b00"/>
<circle cx="416" cy="160" r="3" fill="#088b00"/>
<circle cx="484" cy="85" r="3" fill="#ff3030"/>
<line x1="36" y1="160" x2="36" y2="170" stroke="#909090" stroke-width="2" stroke-linecap="round"/>
<line x1="22" y1="174" x2="50" y2="174" stroke="#909090" stroke-width="2" stroke-linecap="round"/>
<line x1="27" y1="179" x2="45" y2="179" stroke="#909090" stroke-width="2" stroke-linecap="round"/>
<line x1="30.5" y1="184" x2="41.5" y2="184" stroke="#909090" stroke-width="2" stroke-linecap="round"/>
<text x="36" y="198" text-anchor="middle" fill="#e6e6e6" font-family="Segoe UI,sans-serif" font-size="9" font-weight="600">GND</text>
<rect class="topo-hit" data-label="J1" x="48" y="46" width="128" height="56" rx="6" fill="#333333" stroke="#555555" stroke-width="1"/>
<rect x="48" y="46" width="128" height="22" rx="6" fill="#ff3030"/>
<rect x="48" y="62" width="128" height="6" fill="#ff3030"/>
<text x="56" y="61" fill="#ffffff" font-family="Segoe UI,sans-serif" font-size="10" font-weight="600">SOURCE</text>
<text x="168" y="61" fill="#ffffff" text-anchor="end" font-family="Segoe UI,sans-serif" font-size="10" font-weight="600">J1</text>
<circle cx="48" cy="85" r="5" fill="#ff3030" stroke="#555555" stroke-width="1"/>
<text x="56" y="88" text-anchor="start" fill="#909090" font-family="Consolas,monospace" font-size="8">GND</text>
<circle cx="176" cy="85" r="5" fill="#ff3030" stroke="#555555" stroke-width="1"/>
<text x="168" y="88" text-anchor="end" fill="#909090" font-family="Consolas,monospace" font-size="8">VIN</text>
<rect class="topo-hit" data-label="U2" x="276" y="46" width="128" height="92" rx="6" fill="#333333" stroke="#ff7070" stroke-width="1"/>
<rect x="276" y="46" width="128" height="22" rx="6" fill="#ff66ff"/>
<rect x="276" y="62" width="128" height="6" fill="#ff66ff"/>
<text x="284" y="61" fill="#ffffff" font-family="Segoe UI,sans-serif" font-size="10" font-weight="600">REGULATOR</text>
<text x="396" y="61" fill="#ffffff" text-anchor="end" font-family="Segoe UI,sans-serif" font-size="10" font-weight="600">U2</text>
<text x="398" y="132" text-anchor="end" fill="#ff7070" font-size="12">⚠</text>
<circle cx="276" cy="85" r="5" fill="#ff66ff" stroke="#555555" stroke-width="1"/>
<text x="284" y="88" text-anchor="start" fill="#909090" font-family="Consolas,monospace" font-size="8">VIN</text>
<circle cx="404" cy="85" r="5" fill="#ff66ff" stroke="#555555" stroke-width="1"/>
<text x="396" y="88" text-anchor="end" fill="#909090" font-family="Consolas,monospace" font-size="8">VDD_3V3_PWR</text>
<circle cx="276" cy="121" r="5" fill="#ff66ff" stroke="#555555" stroke-width="1"/>
<text x="284" y="124" text-anchor="start" fill="#909090" font-family="Consolas,monospace" font-size="8">GND</text>
<circle cx="404" cy="121" r="5" fill="#ff66ff" stroke="#555555" stroke-width="1"/>
<text x="396" y="124" text-anchor="end" fill="#909090" font-family="Consolas,monospace" font-size="8">GND</text>
<rect class="topo-hit" data-label="R1" x="504" y="46" width="128" height="56" rx="6" fill="#333333" stroke="#555555" stroke-width="1"/>
<rect x="504" y="46" width="128" height="22" rx="6" fill="#1a7a3c"/>
<rect x="504" y="62" width="128" height="6" fill="#1a7a3c"/>
<text x="512" y="61" fill="#ffffff" font-family="Segoe UI,sans-serif" font-size="10" font-weight="600">SERIES</text>
<text x="624" y="61" fill="#ffffff" text-anchor="end" font-family="Segoe UI,sans-serif" font-size="10" font-weight="600">R1</text>
<circle cx="504" cy="85" r="5" fill="#1a7a3c" stroke="#555555" stroke-width="1"/>
<text x="512" y="88" text-anchor="start" fill="#909090" font-family="Consolas,monospace" font-size="8">VDD_3V3_PWR</text>
<circle cx="632" cy="85" r="5" fill="#1a7a3c" stroke="#555555" stroke-width="1"/>
<text x="624" y="88" text-anchor="end" fill="#909090" font-family="Consolas,monospace" font-size="8">LED_R</text>
<rect class="topo-hit" data-label="U1" x="732" y="46" width="128" height="74" rx="6" fill="#333333" stroke="#555555" stroke-width="1"/>
<rect x="732" y="46" width="128" height="22" rx="6" fill="#3aa8ff"/>
<rect x="732" y="62" width="128" height="6" fill="#3aa8ff"/>
<text x="740" y="61" fill="#ffffff" font-family="Segoe UI,sans-serif" font-size="10" font-weight="600">SINK</text>
<text x="852" y="61" fill="#ffffff" text-anchor="end" font-family="Segoe UI,sans-serif" font-size="10" font-weight="600">U1</text>
<circle cx="732" cy="85" r="5" fill="#3aa8ff" stroke="#555555" stroke-width="1"/>
<text x="740" y="88" text-anchor="start" fill="#909090" font-family="Consolas,monospace" font-size="8">VDD_3V3_PWR</text>
<circle cx="732" cy="103" r="5" fill="#3aa8ff" stroke="#555555" stroke-width="1"/>
<text x="740" y="106" text-anchor="start" fill="#909090" font-family="Consolas,monospace" font-size="8">GND</text>
<rect x="223" y="79" width="22" height="12" fill="#2b2b2b" fill-opacity="0.5" stroke="none" rx="2"/>
<text x="234" y="85" text-anchor="middle" dominant-baseline="middle" fill="#e6e6e6" font-family="Segoe UI,sans-serif" font-size="8">VIN</text>
<rect x="422.3" y="79" width="63.4" height="12" fill="#2b2b2b" fill-opacity="0.5" stroke="none" rx="2"/>
<text x="454" y="85" text-anchor="middle" dominant-baseline="middle" fill="#e6e6e6" font-family="Segoe UI,sans-serif" font-size="8">VDD_3V3_PWR</text>
<rect x="12" y="214" width="10" height="10" rx="2" fill="#ff3030"/>
<text x="26" y="224" fill="#909090" font-family="Segoe UI,sans-serif" font-size="10">SOURCE</text>
<rect x="90" y="214" width="10" height="10" rx="2" fill="#3aa8ff"/>
<text x="104" y="224" fill="#909090" font-family="Segoe UI,sans-serif" font-size="10">SINK</text>
<rect x="168" y="214" width="10" height="10" rx="2" fill="#1a7a3c"/>
<text x="182" y="224" fill="#909090" font-family="Segoe UI,sans-serif" font-size="10">SERIES</text>
<rect x="246" y="214" width="10" height="10" rx="2" fill="#ff66ff"/>
<text x="260" y="224" fill="#909090" font-family="Segoe UI,sans-serif" font-size="10">REGULATOR</text>
<line x1="324" y1="220" x2="342" y2="220" stroke="#909090" stroke-width="2" stroke-dasharray="5 4"/>
<text x="348" y="224" fill="#909090" font-family="Segoe UI,sans-serif" font-size="10">extern</text>
</svg>
